# AST/ASF file generated using VICON BodyLanguage
# -----------------------------------------------
:version 1.10
:name VICON
:units
  mass 1.0
  length 0.45
  angle deg
:documentation
   .ast/.asf automatically generated from VICON data using
   VICON BodyBuilder and BodyLanguage model FoxedUp or BRILLIANT.MOD
:root
   order TX TY TZ RX RY RZ
   axis XYZ
   position 0 0 0  
   orientation 0 -0 0 
:bonedata
  begin
     id 1 
     name lhipjoint
     direction 0.432694 -0.693742 0.575759 
     length 2.19277 
     axis 0 -0 0  XYZ
  end
  begin
     id 2 
     name lfemur
     direction 0.34202 -0.939693 0  
     length 6.69022  
     axis 0 -0 20  XYZ
    dof rx ry rz
    limits (-160.0 20.0)
           (-70.0 70.0)
           (-60.0 70.0)
  end
  begin
     id 3 
     name ltibia
     direction 0.34202 -0.939693 0   
     length 6.50337   
     axis 0 -0 20   XYZ
    dof rx
    limits (-10.0 170.0)
  end
  begin
     id 4 
     name lfoot
     direction 0.158999 -0.435969 0.885805   
     length 2.70564   
     axis -90 -1.13533e-015 20   XYZ
    dof rx rz
    limits (-45.0 90.0)
           (-70.0 20.0)
  end
  begin
     id 5 
     name ltoes
     direction -0.00592919 0.00964381 0.999936   
     length 1.29929   
     axis -90 -1.13533e-015 20   XYZ
    dof rx
    limits (-90.0 20.0)
  end
  begin
     id 6 
     name rhipjoint
     direction -0.414359 -0.700339 0.581234   
     length 2.17212  
     axis 0 -0 0  XYZ 
  end
  begin
     id 7 
     name rfemur
     direction -0.34202 -0.939693 0   
     length 7.17659   
     axis 0 -0 -20   XYZ
    dof rx ry rz
    limits (-160.0 20.0)
           (-70.0 70.0)
           (-70.0 60.0)
  end
  begin
     id 8 
     name rtibia
     direction -0.34202 -0.939693 0   
     length 6.36669   
     axis 0 -0 -20   XYZ
    dof rx
    limits (-10.0 170.0)
 end
 begin
     id 9 
     name rfoot
     direction -0.137064 -0.37658 0.916188   
     length 2.22351  
     axis -90 1.13533e-015 -20   XYZ
    dof rx rz
    limits (-45.0 90.0)
           (-20.0 70.0)
  end
  begin
     id 10 
     name rtoes
     direction -0.000784077 -0.00289101 0.999996   
     length 1.09522   
     axis -90 1.13533e-015 -20   XYZ
    dof rx
    limits (-90.0 20.0)
  end
  begin
     id 11 
     name lowerback
     direction -0.0176242 0.984912 -0.172157   
     length 1.65301   
     axis 0 -0 0   XYZ
    dof rx ry rz
    limits (-20.0 45.0)
           (-30.0 30.0)
           (-30.0 30.0)
  end
  begin
     id 12 
     name upperback
     direction -0.00218128 0.998776 -0.0494072   
     length 1.67776   
     axis 0 -0 0   XYZ
    dof rx ry rz
    limits (-20.0 45.0)
           (-30.0 30.0)
           (-30.0 30.0)
  end
  begin
     id 13 
     name thorax
     direction 0.00544186 0.999658 0.0255711   
     length 1.72293   
     axis 0 -0 0   XYZ
    dof rx ry rz
    limits (-20.0 45.0)
           (-30.0 30.0)
           (-30.0 30.0)
  end
  begin
     id 14 
     name lowerneck
     direction -0.105325 0.983841 0.144785   
     length 2.14226   
     axis 0 -0 0   XYZ
    dof rx ry rz
    limits (-20.0 45.0)
           (-30.0 30.0)
           (-30.0 30.0)
  end
  begin
     id 15 
     name upperneck
     direction 0.0547957 0.988053 -0.144041   
     length 2.17508   
     axis 0 -0 0   XYZ
    dof rx ry rz
    limits (-20.0 45.0)
           (-30.0 30.0)
           (-30.0 30.0)
  end
  begin
     id 16
     name head
     direction 0.0247488 0.997534 -0.0656813  
     length 2.20048  
     axis 0 -0 0   XYZ
    dof rx ry rz
    limits (-20.0 45.0)
           (-30.0 30.0)
           (-30.0 30.0)
  end
  begin
     id 17 
     name lclavicle
     direction 0.820559 0.567247 -0.0701026  
     length 4.09615  
     axis 0 -0 0   XYZ
    dof ry rz
    limits (-20.0 10.0)
           (0.0 20.0)
  end
  begin
     id 18 
     name lhumerus
     direction 0.999977 -0.0067566 -9.96392e-005   
     length 4.59333   
     axis -180 -30 -90   XYZ
    dof rx ry rz
    limits (-60.0 90.0)
           (-90.0 90.0)
           (-90.0 90.0)
  end
  begin
     id 19
     name lradius
     direction 1 -4.48982e-011 -2.53425e-027   
     length 2.81151   
     axis -180 -30 -90   XYZ
    dof rx
    limits (-10.0 170.0)
  end
  begin
     id 20
     name lwrist
     direction 1 -4.48939e-011 -7.39254e-028   
     length 1.40576   
     axis 2.56395e-016 90 90   XYZ
    dof ry
    limits (-180.0 0.0)
 end
  begin
     id 21 
     name lhand
     direction 1 -4.48939e-011 -1.47851e-027   
     length 0.895651   
     axis 9.43423e-016 90 90   XYZ
    dof rx rz
    limits (-90.0 90.0)
           (-45.0 45.0)
  end
  begin
     id 22 
     name lfingers
     direction 1 -4.48978e-011 -2.95702e-027   
     length 0.722097   
     axis 1.88685e-015 90 90   XYZ
    dof rx
    limits (0.0 90.0)
  end
  begin
     id 23
     name lthumb
     direction 0.707107 -6.34931e-011 0.707107   
     length 1.03679   
     axis -90 45 -9.86935e-015   XYZ
    dof rx rz
    limits (-45.0 45.0)
           (-45.0 45.0)
  end
  begin
     id 24 
     name rclavicle
     direction -0.831414 0.553102 -0.0531864   
     length 4.24872  
     axis 0 -0 0   XYZ 
    dof ry rz
    limits (-10.0 20.0)
           (-20.0 0.0)
  end
  begin
     id 25 
     name rhumerus
     direction -0.999916 -0.000939607 0.0129331  
     length 4.74834   
     axis -180 30 90   XYZ
    dof rx ry rz
    limits (-90.0 60.0)
           (-90.0 90.0)
           (-90.0 90.0)
  end
  begin
     id 26 
     name rradius
     direction -1 -4.48956e-011 -1.31752e-027   
     length 2.79907   
     axis -180 30 90   XYZ
    dof rx
    limits (-10.0 170.0)
  end
  begin
     id 27 
     name rwrist
     direction -1 -4.4897e-011 -7.39254e-028   
     length 1.39954   
     axis 2.56395e-016 -90 -90   XYZ
    dof ry
    limits (-180.0 0.0)
  end
  begin
     id 28
     name rhand
     direction -0.999997 -0.00250697 0.000800838   
     length 0.953304   
     axis 9.43423e-016 -90 -90   XYZ
    dof rx rz
    limits (-90.0 90.0)
           (-45.0 45.0)
  end
  begin
     id 29
     name rfingers
     direction -1 -4.48954e-011 -2.95702e-027   
     length 0.763342   
     axis 1.88685e-015 -90 -90   XYZ
    dof rx
    limits (0.0 90.0)
  end
  begin
     id 30
     name rthumb
     direction -0.709701 -0.00217037 0.7045   
     length 1.10115   
     axis -90 -45 9.86935e-015   XYZ
    dof rx rz
    limits (-45.0 45.0)
           (-45.0 45.0)
  end
:hierarchy
  begin
    root lhipjoint rhipjoint lowerback
    lhipjoint lfemur
    lfemur ltibia
    ltibia lfoot
    lfoot ltoes
    rhipjoint rfemur
    rfemur rtibia
    rtibia rfoot
    rfoot rtoes
    lowerback upperback
    upperback thorax
    thorax lowerneck lclavicle rclavicle
    lowerneck upperneck
    upperneck head
    lclavicle lhumerus
    lhumerus lradius
    lradius lwrist
    lwrist lhand lthumb
    lhand lfingers
    rclavicle rhumerus
    rhumerus rradius
    rradius rwrist
    rwrist rhand rthumb
    rhand rfingers
  end

#!OML:ASF G:\ViconDB\ViconDB\414\test\team2\shane.ASF
:FULLY-SPECIFIED
:DEGREES
66
root 8.10251 13.8676 -12.3096 12.3376 -21.9983 3.11865
lowerback 24.1519 3.27175 5.45942
upperback 8.26501 5.45059 3.08199
thorax -4.07693 2.60396 -1.21223
lowerneck -19.372 -0.0716673 -3.68344
upperneck 18.7273 1.09178 -0.495396
head 9.06735 0.183757 0.580198
rclavicle -6.99722e-014 1.90833e-014
rhumerus -18.3301 1.82561 -53.8724
rradius 38.1052
rwrist 25.6335
rhand -32.4583 -16.5331
rfingers 7.12502
rthumb -5.69125 -46.4366
lclavicle -6.99722e-014 1.90833e-014
lhumerus -24.4285 17.7016 33.3302
lradius 101.124
lwrist -3.89133
lhand -48.5323 3.37758
lfingers 7.12502
lthumb -21.1798 32.2406
rfemur -54.4148 -29.3397 13.2585
rtibia 91.2582
rfoot -33.1802 -9.07849
rtoes -18.2224
lfemur -51.4419 18.7862 -16.3492
ltibia 85.394
lfoot -39.7052 7.68827
ltoes -15.7018
67
root 8.10251 13.8676 -12.3096 12.3376 -21.9983 3.11865
lowerback 24.1519 3.27175 5.45942
upperback 8.26501 5.45059 3.08199
thorax -4.07693 2.60396 -1.21223
lowerneck -19.372 -0.0716673 -3.68344
upperneck 18.7273 1.09178 -0.495396
head 9.06735 0.183757 0.580198
rclavicle -6.99722e-014 1.90833e-014
rhumerus -18.3301 1.82561 -53.8724
rradius 38.1052
rwrist 25.6335
rhand -32.4583 -16.5331
rfingers 7.12502
rthumb -5.69125 -46.4366
lclavicle -6.99722e-014 1.90833e-014
lhumerus -24.4285 17.7016 33.3302
lradius 101.124
lwrist -3.89133
lhand -48.5323 3.37758
lfingers 7.12502
lthumb -21.1798 32.2406
rfemur -54.4148 -29.3397 13.2585
rtibia 91.2582
rfoot -33.1802 -9.07849
rtoes -18.2224
lfemur -51.4419 18.7862 -16.3492
ltibia 85.394
lfoot -39.7052 7.68827
ltoes -15.7018
68
root 8.10251 13.8676 -12.3096 12.3376 -21.9983 3.11865
lowerback 24.1519 3.27175 5.45942
upperback 8.26501 5.45059 3.08199
thorax -4.07693 2.60396 -1.21223
lowerneck -19.372 -0.0716673 -3.68344
upperneck 18.7273 1.09178 -0.495396
head 9.06735 0.183757 0.580198
rclavicle -6.99722e-014 1.90833e-014
rhumerus -18.3301 1.82561 -53.8724
rradius 38.1052
rwrist 25.6335
rhand -32.4583 -16.5331
rfingers 7.12502
rthumb -5.69125 -46.4366
lclavicle -6.99722e-014 1.90833e-014
lhumerus -24.4285 17.7016 33.3302
lradius 101.124
lwrist -3.89133
lhand -48.5323 3.37758
lfingers 7.12502
lthumb -21.1798 32.2406
rfemur -54.4148 -29.3397 13.2585
rtibia 91.2582
rfoot -33.1802 -9.07849
rtoes -18.2224
lfemur -51.4419 18.7862 -16.3492
ltibia 85.394
lfoot -39.7052 7.68827
ltoes -15.7018
69
root 8.10251 13.8676 -12.3096 12.3376 -21.9983 3.11865
lowerback 24.1519 3.27175 5.45942
upperback 8.26501 5.45059 3.08199
thorax -4.07693 2.60396 -1.21223
lowerneck -19.372 -0.0716673 -3.68344
upperneck 18.7273 1.09178 -0.495396
head 9.06735 0.183757 0.580198
rclavicle -6.99722e-014 1.90833e-014
rhumerus -18.3301 1.82561 -53.8724
rradius 38.1052
rwrist 25.6335
rhand -32.4583 -16.5331
rfingers 7.12502
rthumb -5.69125 -46.4366
lclavicle -6.99722e-014 1.90833e-014
lhumerus -24.4285 17.7016 33.3302
lradius 101.124
lwrist -3.89133
lhand -48.5323 3.37758
lfingers 7.12502
lthumb -21.1798 32.2406
rfemur -54.4148 -29.3397 13.2585
rtibia 91.2582
rfoot -33.1802 -9.07849
rtoes -18.2224
lfemur -51.4419 18.7862 -16.3492
ltibia 85.394
lfoot -39.7052 7.68827
ltoes -15.7018
70
root 8.10251 13.8676 -12.3096 12.3376 -21.9983 3.11865
lowerback 24.1519 3.27175 5.45942
upperback 8.26501 5.45059 3.08199
thorax -4.07693 2.60396 -1.21223
lowerneck -19.372 -0.0716673 -3.68344
upperneck 18.7273 1.09178 -0.495396
head 9.06735 0.183757 0.580198
rclavicle -6.99722e-014 1.90833e-014
rhumerus -18.3301 1.82561 -53.8724
rradius 38.1052
rwrist 25.6335
rhand -32.4583 -16.5331
rfingers 7.12502
rthumb -5.69125 -46.4366
lclavicle -6.99722e-014 1.90833e-014
lhumerus -24.4285 17.7016 33.3302
lradius 101.124
lwrist -3.89133
lhand -48.5323 3.37758
lfingers 7.12502
lthumb -21.1798 32.2406
rfemur -54.4148 -29.3397 13.2585
rtibia 91.2582
rfoot -33.1802 -9.07849
rtoes -18.2224
lfemur -51.4419 18.7862 -16.3492
ltibia 85.394
lfoot -39.7052 7.68827
ltoes -15.7018
71
root 8.10251 13.8676 -12.3096 12.3376 -21.9983 3.11865
lowerback 24.1519 3.27175 5.45942
upperback 8.26501 5.45059 3.08199
thorax -4.07693 2.60396 -1.21223
lowerneck -19.372 -0.0716673 -3.68344
upperneck 18.7273 1.09178 -0.495396
head 9.06735 0.183757 0.580198
rclavicle -6.99722e-014 1.90833e-014
rhumerus -18.3301 1.82561 -53.8724
rradius 38.1052
rwrist 25.6335
rhand -32.4583 -16.5331
rfingers 7.12502
rthumb -5.69125 -46.4366
lclavicle -6.99722e-014 1.90833e-014
lhumerus -24.4285 17.7016 33.3302
lradius 101.124
lwrist -3.89133
lhand -48.5323 3.37758
lfingers 7.12502
lthumb -21.1798 32.2406
rfemur -54.4148 -29.3397 13.2585
rtibia 91.2582
rfoot -33.1802 -9.07849
rtoes -18.2224
lfemur -51.4419 18.7862 -16.3492
ltibia 85.394
lfoot -39.7052 7.68827
ltoes -15.7018
72
root 8.29226 12.9442 -12.4848 16.0904 -24.3626 4.23051
lowerback 27.6927 3.10166 0.785152
upperback 12.3829 3.94001 3.2539
thorax -1.6302 1.74524 1.99688
lowerneck -25.2935 2.38986 -1.91181
upperneck 9.29013 3.83829 -0.0616682
head 6.8296 1.76851 0.769313
rclavicle 1.90833e-014 2.94201e-014
rhumerus 16.1115 -1.04908 -67.6021
rradius 30.6479
rwrist 37.0958
rhand -31.5556 -15.1273
rfingers 7.12502
rthumb -4.81962 -45.0525
lclavicle 1.90833e-014 2.94201e-014
lhumerus 7.71296 -5.27582 53.5424
lradius 71.014
lwrist 9.74435
lhand -47.8556 9.34392
lfingers 7.12502
lthumb -20.5297 38.2784
rfemur -66.2469 -29.807 14.7175
rtibia 100.837
rfoot -38.3185 -9.52332
rtoes -17.2074
lfemur -64.2451 26.3318 -19.5447
ltibia 97.3571
lfoot -42.7527 -1.17449
ltoes -17.4765
